<svg width="168" height="40" viewBox="0 0 168 40" fill="none" xmlns="http://www.w3.org/2000/svg">
<path d="M153.13 33.6698C151.112 33.6698 149.338 33.1499 147.809 32.1102C146.28 31.0398 145.102 29.5414 144.277 27.6148C143.482 25.6881 143.084 23.4252 143.084 20.8258C143.084 18.2264 143.497 15.9634 144.323 14.0368C145.148 12.1102 146.31 10.627 147.809 9.58723C149.338 8.5169 151.112 7.98173 153.13 7.98173C154.873 7.98173 156.371 8.3487 157.625 9.08265C158.91 9.78601 159.888 10.7646 160.561 12.0184V0.550537H167.442V33.1193H160.836L160.699 29.4955C160.026 30.8105 159.017 31.8349 157.671 32.5689C156.356 33.3028 154.842 33.6698 153.13 33.6698ZM155.423 28.3946C156.524 28.3946 157.457 28.1041 158.222 27.523C158.986 26.942 159.567 26.101 159.965 25.0001C160.362 23.8686 160.561 22.4771 160.561 20.8258C160.561 19.1744 160.362 17.783 159.965 16.6515C159.567 15.52 158.986 14.679 158.222 14.1285C157.457 13.5475 156.524 13.257 155.423 13.257C153.803 13.257 152.518 13.945 151.57 15.3212C150.622 16.6667 150.148 18.5016 150.148 20.8258C150.148 23.1193 150.622 24.9542 151.57 26.3303C152.549 27.7065 153.833 28.3946 155.423 28.3946Z" fill="#8162E8"/>
<path d="M134.353 8.53211H141.234V33.1193H134.353V8.53211ZM134.215 0H141.325V5.50459H134.215V0Z" fill="#8162E8"/>
<path d="M116.448 33.6698C113.848 33.6698 111.753 33.0734 110.163 31.8808C108.604 30.6881 107.824 29.052 107.824 26.9725C107.824 24.8318 108.481 23.1652 109.796 21.9725C111.111 20.7799 113.145 19.9083 115.897 19.3578L123.833 17.7982C123.833 16.208 123.466 15.0153 122.732 14.2202C122.029 13.3945 120.989 12.9817 119.613 12.9817C118.328 12.9817 117.319 13.2875 116.585 13.8991C115.851 14.4802 115.362 15.3517 115.117 16.5138L108.237 16.1927C108.695 13.5016 109.903 11.4679 111.86 10.0918C113.818 8.68505 116.402 7.98169 119.613 7.98169C123.282 7.98169 126.05 8.85325 127.915 10.5964C129.781 12.3395 130.714 14.893 130.714 18.2569V26.6514C130.714 27.3242 130.821 27.7829 131.035 28.0276C131.249 28.2722 131.6 28.3945 132.09 28.3945H132.778V33.1193C132.533 33.1805 132.166 33.2416 131.677 33.3028C131.218 33.364 130.76 33.3945 130.301 33.3945C128.619 33.3945 127.273 32.9664 126.264 32.1101C125.286 31.2539 124.796 29.786 124.796 27.7065L125.393 28.1652C124.934 29.8471 123.925 31.1927 122.365 32.2019C120.805 33.1805 118.833 33.6698 116.448 33.6698ZM118.099 28.945C119.23 28.945 120.224 28.7309 121.081 28.3028C121.967 27.8441 122.64 27.1866 123.099 26.3303C123.588 25.474 123.833 24.4649 123.833 23.3028V22.1101L118.237 23.3028C117.105 23.5169 116.264 23.8838 115.714 24.4037C115.163 24.893 114.888 25.5352 114.888 26.3303C114.888 27.1866 115.148 27.8441 115.668 28.3028C116.218 28.7309 117.029 28.945 118.099 28.945Z" fill="#8162E8"/>
<path d="M82.9209 8.53215H89.5264L89.664 13.7156L89.1136 13.4863C89.6946 11.7432 90.6732 10.3976 92.0493 9.44958C93.4561 8.47099 95.0769 7.98169 96.9117 7.98169C99.1441 7.98169 101.04 8.54744 102.6 9.67894C104.159 10.7799 105.322 12.3089 106.086 14.2661C106.881 16.1927 107.279 18.3792 107.279 20.8257C107.279 23.2722 106.881 25.474 106.086 27.4312C105.291 29.3578 104.114 30.8869 102.554 32.0184C100.994 33.1193 99.0983 33.6698 96.8658 33.6698C95.6732 33.6698 94.557 33.4557 93.5172 33.0276C92.4775 32.5688 91.5753 31.9419 90.8108 31.1468C90.0769 30.3517 89.5417 29.4037 89.2053 28.3028L89.8016 27.9358V40H82.9209V8.53215ZM94.9851 28.3945C96.6059 28.3945 97.875 27.7218 98.7925 26.3762C99.7405 25.0306 100.214 23.1805 100.214 20.8257C100.214 18.471 99.7405 16.6208 98.7925 15.2753C97.875 13.9297 96.6059 13.2569 94.9851 13.2569C93.9148 13.2569 92.9821 13.5474 92.187 14.1285C91.4224 14.7095 90.8261 15.5658 90.398 16.6973C90.0004 17.7982 89.8016 19.1743 89.8016 20.8257C89.8016 22.4771 90.0004 23.8685 90.398 25C90.8261 26.101 91.4224 26.9419 92.187 27.523C92.9515 28.104 93.8842 28.3945 94.9851 28.3945Z" fill="#8162E8"/>
<path d="M70.2421 33.6698C67.7956 33.6698 65.7008 33.3181 63.9577 32.6147C62.2146 31.9114 60.8843 30.9481 59.9669 29.7248C59.08 28.471 58.5754 27.0184 58.4531 25.367L65.4256 25.1377C65.6397 26.3303 66.129 27.2477 66.8935 27.8899C67.6886 28.5016 68.8201 28.8074 70.288 28.8074C71.5418 28.8074 72.5051 28.6086 73.1779 28.211C73.8507 27.7829 74.1871 27.1713 74.1871 26.3762C74.1871 25.8257 74.0495 25.3823 73.7742 25.0459C73.5296 24.7095 73.0403 24.419 72.3063 24.1743C71.603 23.8991 70.5632 23.6545 69.1871 23.4404C66.5877 23.0123 64.554 22.4924 63.0862 21.8808C61.6183 21.2386 60.5785 20.4435 59.9669 19.4955C59.3553 18.5169 59.0495 17.3089 59.0495 15.8716C59.0495 13.4557 59.9822 11.5444 61.8476 10.1377C63.7131 8.70034 66.4195 7.98169 69.9669 7.98169C73.3002 7.98169 75.8996 8.74622 77.7651 10.2753C79.6611 11.8043 80.762 13.8533 81.0678 16.4221L74.1871 16.6973C74.0342 15.5046 73.5755 14.5719 72.8109 13.8991C72.077 13.1958 71.0984 12.8441 69.8751 12.8441C68.6825 12.8441 67.7498 13.104 67.077 13.6239C66.4348 14.1132 66.1137 14.7707 66.1137 15.5964C66.1137 16.208 66.2513 16.7126 66.5265 17.1101C66.8323 17.4771 67.3063 17.7829 67.9485 18.0276C68.6213 18.2722 69.5388 18.471 70.7008 18.6239C73.3308 19.0214 75.4103 19.5413 76.9394 20.1835C78.4684 20.7951 79.5693 21.5903 80.2421 22.5688C80.9149 23.5474 81.2513 24.7707 81.2513 26.2386C81.2513 28.5933 80.2574 30.4282 78.2696 31.7432C76.3125 33.0276 73.6366 33.6698 70.2421 33.6698Z" fill="#8162E8"/>
<path d="M45.9957 33.6698C43.5186 33.6698 41.3321 33.1499 39.436 32.1101C37.5706 31.0398 36.1333 29.5413 35.1241 27.6147C34.1149 25.6575 33.6104 23.3945 33.6104 20.8257C33.6104 18.2569 34.1149 16.0092 35.1241 14.0826C36.1333 12.1254 37.5706 10.627 39.436 9.5872C41.3015 8.51686 43.4727 7.98169 45.9498 7.98169C48.3657 7.98169 50.4758 8.51686 52.2801 9.5872C54.1149 10.6575 55.5217 12.2019 56.5003 14.2202C57.4789 16.208 57.9681 18.5627 57.9681 21.2844V22.6606H40.7204C40.7816 24.5566 41.2862 25.9939 42.2342 26.9725C43.1822 27.9511 44.4819 28.4404 46.1333 28.4404C47.2954 28.4404 48.2587 28.1958 49.0232 27.7065C49.8183 27.2172 50.3841 26.4679 50.7204 25.4588L57.647 25.8716C56.9743 28.3181 55.5981 30.2294 53.5186 31.6055C51.4697 32.9817 48.962 33.6698 45.9957 33.6698ZM50.9498 18.4404C50.8581 16.6973 50.3688 15.367 49.4819 14.4496C48.5951 13.5321 47.4177 13.0734 45.9498 13.0734C44.4819 13.0734 43.2892 13.5474 42.3718 14.4955C41.4544 15.4435 40.9039 16.7584 40.7204 18.4404H50.9498Z" fill="#8162E8"/>
<path d="M13.8532 6.4221V0.550537H14.0138H21.1468C23.5015 0.550537 25.5657 0.948091 27.3394 1.7432C29.1131 2.5383 30.474 3.6698 31.422 5.13769C32.37 6.60558 32.844 8.31812 32.844 10.2753C32.844 11.7432 32.5382 13.0735 31.9266 14.2661C31.315 15.4282 30.4587 16.3762 29.3578 17.1102C28.6601 17.5753 27.9009 17.9299 27.0803 18.174C28.4713 18.359 29.5822 18.7995 30.4128 19.4955C31.5443 20.4129 32.1865 21.8349 32.3394 23.7615L33.1651 33.1193H26.055L25.4587 24.8625C25.367 23.5781 24.9694 22.6453 24.2661 22.0643C23.5627 21.4833 22.4006 21.1927 20.7798 21.1927H13.8532V33.1193H6.88073V6.4221H13.8532ZM20.367 15.367C22.0489 15.367 23.3486 14.9848 24.2661 14.2203C25.2141 13.4252 25.6881 12.3089 25.6881 10.8716C25.6881 9.40375 25.2141 8.30283 24.2661 7.56888C23.318 6.80436 21.9419 6.4221 20.1376 6.4221H13.8532V15.367H20.367Z" fill="#8162E8"/>
<path d="M0 0.550537H6.88073V6.4221H0V0.550537Z" fill="#8162E8"/>
</svg>
